<svg xmlns="http://www.w3.org/2000/svg" width="400" height="400">
  <g id="bunny"
     inkscape:label="Layer 1"
     inkscape:groupmode="layer"
     id="layer1"
     transform="translate(-6.2294432,-138.31889)">
    <ellipse
       style="fill:#c87137;stroke-width:0.264583"
       id="path22"
       cx="109.77235"
       cy="221.0787"
       rx="72.219345"
       ry="44.63401" />
    <ellipse
       style="fill:#c87137;stroke-width:0.294944"
       id="path24"
       cx="-61.453342"
       cy="186.47321"
       rx="24.284969"
       ry="33.734375"
       transform="rotate(-33.326562)" />
    <ellipse
       style="fill:#000000;stroke-width:0.264583"
       id="path28"
       cx="34.377316"
       cy="178.70445"
       rx="3.3072915"
       ry="3.7797618" />
    <ellipse
       style="fill:#000000;stroke-width:0.264583"
       id="path30"
       cx="53.843094"
       cy="178.32648"
       rx="4.6302085"
       ry="4.3467264" />
    <path
       style="fill:#000000;stroke:#000000;stroke-width:0.264583px;stroke-linecap:butt;stroke-linejoin:miter;stroke-opacity:1"
       d="M 31.259012,170.57796 C 10.848297,152.05713 5.3676442,147.71041 6.5015712,143.36368 c 1.133928,-4.34673 11.5282738,4.15774 11.5282738,4.15774 l 17.575893,20.03274 z"
       id="path32" />
    <path
       style="fill:#000000;stroke:#000000;stroke-width:0.36538px;stroke-linecap:butt;stroke-linejoin:miter;stroke-opacity:1"
       d="m 51.519424,166.22356 c 7.640952,-4.59606 22.740728,-23.54672 22.740728,-23.54672 0,0 9.41681,-7.05487 8.13469,-2.82494 -1.28214,4.22994 -21.31032,29.50574 -21.31032,29.50574 l -8.323797,-2.81993 z"
       id="path34" />
    <circle
       style="fill:#784421;stroke-width:0.264583"
       id="path52"
       sodipodi:type="arc"
       sodipodi:cx="181.97701"
       sodipodi:cy="219.71487"
       sodipodi:rx="21.450148"
       sodipodi:ry="22.867559"
       sodipodi:start="6.2688212"
       sodipodi:end="6.2164963"
       sodipodi:open="true"
       sodipodi:arc-type="arc"
       d="m 203.42494,219.38641 a 21.450148,22.867559 0 0 1 -20.8593,23.18741 21.450148,22.867559 0 0 1 -22.02117,-21.93246 21.450148,22.867559 0 0 1 20.28319,-23.76119 21.450148,22.867559 0 0 1 22.55181,21.31082" />
    <circle
       style="fill:#803300;stroke-width:0.264583"
       id="path56"
       sodipodi:type="arc"
       sodipodi:cx="44.015709"
       sodipodi:cy="189.94925"
       sodipodi:rx="1.4174107"
       sodipodi:ry="1.7953868"
       sodipodi:start="6.2688212"
       sodipodi:end="6.2164963"
       sodipodi:open="true"
       sodipodi:arc-type="arc"
       d="m 45.432973,189.92346 a 1.4174107,1.7953868 0 0 1 -1.378368,1.8205 1.4174107,1.7953868 0 0 1 -1.455143,-1.72197 1.4174107,1.7953868 0 0 1 1.340299,-1.86555 1.4174107,1.7953868 0 0 1 1.490208,1.67317" />
    <path
       style="fill:#784421;stroke:#000000;stroke-width:0.264583px;stroke-linecap:butt;stroke-linejoin:miter;stroke-opacity:1"
       d="m 64.313551,252.82055 c 0,0 -14.911379,-8.92977 -18.117119,-1.53681 -3.205746,7.39295 30.584068,12.92855 30.584068,12.92855 0,0 9.060925,-0.60746 5.456536,-2.92404 -3.604394,-2.31661 -17.923485,-8.4677 -17.923485,-8.4677 z"
       id="path62" />
    <path
       style="fill:#a05a2c;stroke:#000000;stroke-width:0.264583px;stroke-linecap:butt;stroke-linejoin:miter;stroke-opacity:1"
       d="m 126.27429,259.51466 c 0,0 -17.21725,-2.37838 -17.27238,5.67951 -0.0551,8.05788 33.20431,-0.0786 33.20431,-0.0786 0,0 8.09966,-4.1067 3.87601,-4.82705 -4.22367,-0.72038 -19.80794,-0.77383 -19.80794,-0.77383 z"
       id="path62-5" />
    <ellipse
       style="fill:#c87137;stroke-width:0.264583"
       id="ellipse84"
       cx="109.77235"
       cy="221.0787"
       rx="72.219345"
       ry="44.63401" />
    <ellipse
       style="fill:#c87137;stroke-width:0.294944"
       id="ellipse86"
       cx="-61.453342"
       cy="186.47321"
       rx="24.284969"
       ry="33.734375"
       transform="rotate(-33.326562)" />
    <ellipse
       style="fill:#000000;stroke-width:0.264583"
       id="ellipse88"
       cx="34.377316"
       cy="178.70445"
       rx="3.3072915"
       ry="3.7797618" />
    <ellipse
       style="fill:#000000;stroke-width:0.264583"
       id="ellipse90"
       cx="53.843094"
       cy="178.32648"
       rx="4.6302085"
       ry="4.3467264" />
    <path
       style="fill:#000000;stroke:#000000;stroke-width:0.264583px;stroke-linecap:butt;stroke-linejoin:miter;stroke-opacity:1"
       d="M 31.259012,170.57796 C 10.848297,152.05713 5.3676442,147.71041 6.5015712,143.36368 c 1.133928,-4.34673 11.5282738,4.15774 11.5282738,4.15774 l 17.575893,20.03274 z"
       id="path92" />
    <path
       style="fill:#000000;stroke:#000000;stroke-width:0.36538px;stroke-linecap:butt;stroke-linejoin:miter;stroke-opacity:1"
       d="m 51.519424,166.22356 c 7.640952,-4.59606 22.740728,-23.54672 22.740728,-23.54672 0,0 9.41681,-7.05487 8.13469,-2.82494 -1.28214,4.22994 -21.31032,29.50574 -21.31032,29.50574 l -8.323797,-2.81993 z"
       id="path94" />
    <circle
       style="fill:#784421;stroke-width:0.264583"
       id="circle96"
       sodipodi:type="arc"
       sodipodi:cx="176.09708"
       sodipodi:cy="220.2494"
       sodipodi:rx="21.450148"
       sodipodi:ry="22.867559"
       sodipodi:start="6.2688212"
       sodipodi:end="6.2164963"
       sodipodi:open="true"
       sodipodi:arc-type="arc"
       d="m 197.54501,219.92094 a 21.450148,22.867559 0 0 1 -20.8593,23.18741 21.450148,22.867559 0 0 1 -22.02117,-21.93246 21.450148,22.867559 0 0 1 20.28319,-23.76119 21.450148,22.867559 0 0 1 22.55181,21.31082" />
    <circle
       style="fill:#803300;stroke-width:0.264583"
       id="circle98"
       sodipodi:type="arc"
       sodipodi:cx="44.015709"
       sodipodi:cy="189.94925"
       sodipodi:rx="1.4174107"
       sodipodi:ry="1.7953868"
       sodipodi:start="6.2688212"
       sodipodi:end="6.2164963"
       sodipodi:open="true"
       sodipodi:arc-type="arc"
       d="m 45.432973,189.92346 a 1.4174107,1.7953868 0 0 1 -1.378368,1.8205 1.4174107,1.7953868 0 0 1 -1.455143,-1.72197 1.4174107,1.7953868 0 0 1 1.340299,-1.86555 1.4174107,1.7953868 0 0 1 1.490208,1.67317" />
    <path
       style="fill:#784421;stroke:#000000;stroke-width:0.264583px;stroke-linecap:butt;stroke-linejoin:miter;stroke-opacity:1"
       d="m 64.313551,252.82055 c 0,0 -14.911379,-8.92977 -18.117119,-1.53681 -3.205746,7.39295 30.584068,12.92855 30.584068,12.92855 0,0 9.060925,-0.60746 5.456536,-2.92404 -3.604394,-2.31661 -17.923485,-8.4677 -17.923485,-8.4677 z"
       id="path100" />
    <path
       style="fill:#a05a2c;stroke:#000000;stroke-width:0.264583px;stroke-linecap:butt;stroke-linejoin:miter;stroke-opacity:1"
       d="m 126.27429,259.51466 c 0,0 -17.21725,-2.37838 -17.27238,5.67951 -0.0551,8.05788 33.20431,-0.0786 33.20431,-0.0786 0,0 8.09966,-4.1067 3.87601,-4.82705 -4.22367,-0.72038 -19.80794,-0.77383 -19.80794,-0.77383 z"
       id="path102" />
  </g>
    <rect width="1000" height="1000" fill="white"/>
    <use href="#bunny" x="20" y="50" />
    <use href="#bunny" x="150" y="150" />
    <use href="#bunny" x="100" y="250" />
</svg>
